<?xml version="1.0" encoding="UTF-8" standalone="no"?>
<!-- Created with Inkscape (http://www.inkscape.org/) -->

<svg
   xmlns:dc="http://purl.org/dc/elements/1.1/"
   xmlns:cc="http://creativecommons.org/ns#"
   xmlns:rdf="http://www.w3.org/1999/02/22-rdf-syntax-ns#"
   xmlns:svg="http://www.w3.org/2000/svg"
   xmlns="http://www.w3.org/2000/svg"
   xmlns:xlink="http://www.w3.org/1999/xlink"
   xmlns:sodipodi="http://sodipodi.sourceforge.net/DTD/sodipodi-0.dtd"
   xmlns:inkscape="http://www.inkscape.org/namespaces/inkscape"
   width="32"
   height="32"
   id="svg4034"
   version="1.1"
   inkscape:version="0.91 r13725"
   inkscape:export-filename="/home/umcaruje/d/Dropbox/lmms icons/project-32x32@2.png"
   inkscape:export-xdpi="180"
   inkscape:export-ydpi="180"
   sodipodi:docname="project-32x32.svg"
   style="enable-background:new">
  <defs
     id="defs4036">
    <linearGradient
       id="linearGradient4244-6"
       inkscape:collect="always">
      <stop
         id="stop4428"
         offset="0"
         style="stop-color:#27ab5f;stop-opacity:1" />
      <stop
         id="stop4430"
         offset="1"
         style="stop-color:#249a56;stop-opacity:1" />
    </linearGradient>
    <linearGradient
       inkscape:collect="always"
       id="linearGradient4244">
      <stop
         style="stop-color:#ffffff;stop-opacity:1"
         offset="0"
         id="stop4246" />
      <stop
         style="stop-color:#f5f5f5;stop-opacity:1"
         offset="1"
         id="stop4248" />
    </linearGradient>
    <filter
       style="color-interpolation-filters:sRGB"
       id="filter5097"
       inkscape:label="filter1">
      <feGaussianBlur
         stdDeviation="1"
         id="feGaussianBlur5099" />
    </filter>
    <filter
       inkscape:collect="always"
       style="color-interpolation-filters:sRGB"
       id="filter4178">
      <feBlend
         inkscape:collect="always"
         mode="lighten"
         in2="BackgroundImage"
         id="feBlend4180" />
    </filter>
    <linearGradient
       inkscape:collect="always"
       xlink:href="#linearGradient4244"
       id="linearGradient4252"
       x1="9.8838835"
       y1="-9.8994951"
       x2="10.275496"
       y2="27.930717"
       gradientUnits="userSpaceOnUse" />
    <filter
       inkscape:collect="always"
       style="color-interpolation-filters:sRGB"
       id="filter4400"
       x="-0.024"
       width="1.048"
       y="-0.024"
       height="1.048">
      <feGaussianBlur
         inkscape:collect="always"
         stdDeviation="0.14999999"
         id="feGaussianBlur4402" />
    </filter>
    <filter
       inkscape:collect="always"
       style="color-interpolation-filters:sRGB"
       id="filter4422"
       x="-0.0116"
       width="1.0232"
       y="-0.012428571"
       height="1.024857">
      <feGaussianBlur
         inkscape:collect="always"
         stdDeviation="0.145"
         id="feGaussianBlur4424" />
    </filter>
    <linearGradient
       inkscape:collect="always"
       xlink:href="#linearGradient4244-6"
       id="linearGradient4432"
       gradientUnits="userSpaceOnUse"
       x1="9.8838835"
       y1="-9.8994951"
       x2="10.275496"
       y2="27.930717"
       gradientTransform="matrix(0.47826087,0,0,0.47826087,1.2173913,47.869565)" />
    <linearGradient
       inkscape:collect="always"
       xlink:href="#linearGradient4244"
       id="linearGradient4184"
       gradientUnits="userSpaceOnUse"
       x1="9.8838835"
       y1="-9.8994951"
       x2="10.275496"
       y2="27.930717" />
    <filter
       inkscape:collect="always"
       style="color-interpolation-filters:sRGB"
       id="filter4232"
       x="-0.024"
       width="1.048"
       y="-0.024"
       height="1.048">
      <feGaussianBlur
         inkscape:collect="always"
         stdDeviation="0.08"
         id="feGaussianBlur4234" />
    </filter>
    <filter
       inkscape:collect="always"
       style="color-interpolation-filters:sRGB"
       id="filter4240"
       x="-0.0118125"
       width="1.023625"
       y="-0.012193548"
       height="1.0243871">
      <feGaussianBlur
         inkscape:collect="always"
         stdDeviation="0.07875"
         id="feGaussianBlur4242" />
    </filter>
  </defs>
  <sodipodi:namedview
     id="base"
     pagecolor="#ffffff"
     bordercolor="#666666"
     borderopacity="1.0"
     inkscape:pageopacity="0.0"
     inkscape:pageshadow="2"
     inkscape:zoom="22.627417"
     inkscape:cx="11.793608"
     inkscape:cy="14.433484"
     inkscape:current-layer="g4263"
     showgrid="true"
     inkscape:grid-bbox="true"
     inkscape:document-units="px"
     inkscape:window-width="1366"
     inkscape:window-height="740"
     inkscape:window-x="339"
     inkscape:window-y="1080"
     inkscape:window-maximized="1"
     showguides="false"
     inkscape:guide-bbox="true"
     inkscape:snap-bbox="true"
     inkscape:object-nodes="true"
     inkscape:snap-smooth-nodes="true">
    <inkscape:grid
       type="xygrid"
       id="grid4042" />
    <sodipodi:guide
       position="37,4"
       orientation="0,1"
       id="guide4951" />
    <sodipodi:guide
       position="38,60"
       orientation="0,1"
       id="guide4955" />
    <sodipodi:guide
       position="-19,32"
       orientation="0,1"
       id="guide4957" />
    <inkscape:grid
       type="xygrid"
       id="grid4207"
       spacingx="0.5"
       color="#ff3f3f"
       opacity="0.1254902"
       spacingy="0.5"
       enabled="false" />
  </sodipodi:namedview>
  <metadata
     id="metadata4039">
    <rdf:RDF>
      <cc:Work
         rdf:about="">
        <dc:format>image/svg+xml</dc:format>
        <dc:type
           rdf:resource="http://purl.org/dc/dcmitype/StillImage" />
        <dc:title />
      </cc:Work>
    </rdf:RDF>
  </metadata>
  <g
     inkscape:groupmode="layer"
     id="g4404"
     inkscape:label="bg light with fold copy"
     style="display:none">
    <path
       sodipodi:nodetypes="ssssssccccs"
       inkscape:connector-curvature="0"
       id="path4406"
       d="m 10,-30 c -1.108,0 -2,0.892 -2,2 l 0,56 c 0,1.108 0.892,2 2,2 l 44,0 c 1.108,0 2,-0.892 2,-2 l 0,-43 c 0,-1 -1,-2 -1,-2 L 43,-29 c 0,0 -1,-1 -2,-1 z"
       style="opacity:1;fill:#4dcb8b;fill-opacity:1;stroke:none;stroke-opacity:1" />
    <path
       sodipodi:nodetypes="sssssscccs"
       inkscape:connector-curvature="0"
       id="path4408"
       d="m 10,-29 c -0.554,0 -1,0.446 -1,1 l 0,56 c 0,0.554 0.446,1 1,1 l 44,0 c 0.554,0 1,-0.446 1,-1 l 0,-43 -13,-1 -1,-13 z"
       style="opacity:1;fill:url(#linearGradient4184);fill-opacity:1;fill-rule:evenodd;stroke:none;stroke-width:1;stroke-miterlimit:4;stroke-dasharray:none;stroke-opacity:1" />
    <path
       sodipodi:nodetypes="ccccccc"
       inkscape:connector-curvature="0"
       id="path4410"
       d="m 40,-29 0,11.999999 c 0,2 1,3 3,3 l 11.999999,0 0,-1 L 41,-29 Z"
       style="display:inline;opacity:0.12999998;fill:#222222;fill-opacity:1;fill-rule:evenodd;stroke:none;stroke-width:1px;stroke-linecap:butt;stroke-linejoin:miter;stroke-opacity:1;filter:url(#filter4400)" />
    <path
       sodipodi:nodetypes="ccccccc"
       inkscape:connector-curvature="0"
       id="path4412"
       d="m 41,-29 0,12 c 0,1.03125 0.9375,2 2,2 l 12,0 0,-1 -13,-13 z"
       style="fill:#4dcb8b;fill-opacity:1;fill-rule:evenodd;stroke:none;stroke-width:1px;stroke-linecap:butt;stroke-linejoin:miter;stroke-opacity:1" />
  </g>
  <g
     inkscape:groupmode="layer"
     id="g4418"
     inkscape:label="shadow darker"
     style="display:none"
     transform="translate(0,-32)">
    <path
       sodipodi:nodetypes="ccccccccccccccccc"
       inkscape:connector-curvature="0"
       id="path4420"
       d="m 32,21 -15,8 0,17.5 5,2.5 4.999999,-2.5 0,-6 L 22,38 l 0,-6 10,-5.5 10,5.5 0,6 -4.999999,2.5 0,6 L 42,49 47,46.5 47,29 Z"
       style="color:#000000;font-style:normal;font-variant:normal;font-weight:normal;font-stretch:normal;font-size:medium;line-height:normal;font-family:sans-serif;text-indent:0;text-align:start;text-decoration:none;text-decoration-line:none;text-decoration-style:solid;text-decoration-color:#000000;letter-spacing:normal;word-spacing:normal;text-transform:none;direction:ltr;block-progression:tb;writing-mode:lr-tb;baseline-shift:baseline;text-anchor:start;white-space:normal;clip-rule:nonzero;display:inline;overflow:visible;visibility:visible;opacity:0.1;isolation:auto;mix-blend-mode:normal;color-interpolation:sRGB;color-interpolation-filters:linearRGB;solid-color:#000000;solid-opacity:1;fill:#000000;fill-opacity:1;fill-rule:nonzero;stroke:none;stroke-width:0.97797471;stroke-linecap:butt;stroke-linejoin:miter;stroke-miterlimit:4;stroke-dasharray:none;stroke-dashoffset:0;stroke-opacity:1;filter:url(#filter4422);color-rendering:auto;image-rendering:auto;shape-rendering:auto;text-rendering:auto;enable-background:accumulate" />
  </g>
  <g
     style="display:none"
     inkscape:label="icon light 1 copy copy"
     id="g4414"
     inkscape:groupmode="layer"
     transform="translate(0,-32)">
    <path
       style="color:#000000;font-style:normal;font-variant:normal;font-weight:normal;font-stretch:normal;font-size:medium;line-height:normal;font-family:sans-serif;text-indent:0;text-align:start;text-decoration:none;text-decoration-line:none;text-decoration-style:solid;text-decoration-color:#000000;letter-spacing:normal;word-spacing:normal;text-transform:none;direction:ltr;block-progression:tb;writing-mode:lr-tb;baseline-shift:baseline;text-anchor:start;white-space:normal;clip-rule:nonzero;display:inline;overflow:visible;visibility:visible;opacity:0.98999999;isolation:auto;mix-blend-mode:normal;color-interpolation:sRGB;color-interpolation-filters:linearRGB;solid-color:#000000;solid-opacity:1;fill:#4dcb8b;fill-opacity:1;fill-rule:nonzero;stroke:none;stroke-width:0.97797471;stroke-linecap:butt;stroke-linejoin:miter;stroke-miterlimit:4;stroke-dasharray:none;stroke-dashoffset:0;stroke-opacity:1;filter:url(#filter5497);color-rendering:auto;image-rendering:auto;shape-rendering:auto;text-rendering:auto;enable-background:accumulate"
       d="m 32,19 -15,8 0,17.5 5,2.5 4.999999,-2.5 0,-6 L 22,36 l 0,-6 10,-5.5 10,5.5 0,6 -4.999999,2.5 0,6 L 42,47 47,44.5 47,27 Z"
       id="path4416"
       inkscape:connector-curvature="0"
       sodipodi:nodetypes="ccccccccccccccccc" />
  </g>
  <g
     inkscape:groupmode="layer"
     id="g4220"
     inkscape:label="bg light copy"
     style="display:none;filter:url(#filter4178)">
    <path
       sodipodi:nodetypes="ssssssccccs"
       inkscape:connector-curvature="0"
       id="path4222"
       d="m 10,-30 c -1.108,0 -2,0.892 -2,2 l 0,56 c 0,1.108 0.892,2 2,2 l 44,0 c 1.108,0 2,-0.892 2,-2 l 0,-41 c 0,-1 -1,-2 -1,-2 L 41,-29 c 0,0 -1,-1 -2,-1 z"
       style="opacity:0.98999999;fill:#003c1c;fill-opacity:0.70588235;stroke:none;stroke-opacity:1" />
    <path
       sodipodi:nodetypes="ssssssccs"
       inkscape:connector-curvature="0"
       id="path4224"
       d="m 10,-29 c -0.554,0 -1,0.446 -1,1 l 0,56 c 0,0.554 0.446,1 1,1 l 44,0 c 0.554,0 1,-0.446 1,-1 L 55,-12.001038 38,-29 Z"
       style="opacity:1;fill:url(#linearGradient4252);fill-opacity:1;fill-rule:evenodd;stroke:none;stroke-width:1;stroke-miterlimit:4;stroke-dasharray:none;stroke-opacity:1" />
  </g>
  <g
     style="display:none"
     inkscape:label="bg light with fold"
     id="g4271"
     inkscape:groupmode="layer" />
  <g
     style="display:none"
     inkscape:label="shadow"
     id="g4434"
     inkscape:groupmode="layer"
     transform="translate(0,-32)" />
  <g
     inkscape:groupmode="layer"
     id="g4263"
     inkscape:label="icon light 1 copy"
     style="display:inline"
     transform="translate(0,-32)">
    <path
       style="display:inline;opacity:1;fill:#34d07b;fill-opacity:1;stroke:none;stroke-opacity:1;enable-background:new"
       d="m 5,33 c -0.554,0 -1,0.446 -1,1 l 0,28 c 0,0.554 0.446,1 1,1 l 22,0 c 0.554,0 1,-0.446 1,-1 l 0,-21.5 c 0,-0.5 -0.5,-1 -0.5,-1 l -6,-6 c 0,0 -0.5,-0.5 -1,-0.5 z"
       id="path4273"
       inkscape:connector-curvature="0"
       sodipodi:nodetypes="ssssssccccs" />
    <path
       style="display:inline;opacity:1;fill:url(#linearGradient4432);fill-opacity:1;fill-rule:evenodd;stroke:none;stroke-width:1;stroke-miterlimit:4;stroke-dasharray:none;stroke-opacity:1;enable-background:new"
       d="m 6,34 c -0.5,0 -1,0.5 -1,1 l 0,26 c 0,0.5 0.4999616,1 1,1 l 20,0 c 0.5,0 1,-0.5 1,-1 L 27,40.5 21.304348,40.217391 21,34 Z"
       id="path4275"
       inkscape:connector-curvature="0"
       sodipodi:nodetypes="sssssscccs" />
    <path
       style="display:inline;opacity:0.12999998;fill:#222222;fill-opacity:1;fill-rule:evenodd;stroke:none;stroke-width:1px;stroke-linecap:butt;stroke-linejoin:miter;stroke-opacity:1;enable-background:new;filter:url(#filter4232)"
       d="m 19,34 0,6 c 0,1 1,2 2,2 l 6,0 0,-1 -7,-7 z"
       id="path4339-5"
       inkscape:connector-curvature="0"
       sodipodi:nodetypes="ccccccc" />
    <path
       style="display:inline;fill:#34d07b;fill-opacity:1;fill-rule:evenodd;stroke:none;stroke-width:1px;stroke-linecap:butt;stroke-linejoin:miter;stroke-opacity:1;enable-background:new"
       d="m 20,34 0,6 c 0,0.515625 0.46875,1 1,1 l 6,0 0,-1 -6,-6 z"
       id="path4339"
       inkscape:connector-curvature="0"
       sodipodi:nodetypes="ccccccc" />
    <path
       sodipodi:nodetypes="ccccccccccccccccc"
       inkscape:connector-curvature="0"
       id="path4265-3"
       d="m 16,43 -8,4 0,10 3,1.5 3,-1.5 0,-3 -3,-1.5 0,-3.433334 5,-2.566666 5,2.5 0,3.5 -3,1.5 0,3 3,1.5 3,-1.5 0,-10 z"
       style="color:#000000;font-style:normal;font-variant:normal;font-weight:normal;font-stretch:normal;font-size:medium;line-height:normal;font-family:sans-serif;text-indent:0;text-align:start;text-decoration:none;text-decoration-line:none;text-decoration-style:solid;text-decoration-color:#000000;letter-spacing:normal;word-spacing:normal;text-transform:none;direction:ltr;block-progression:tb;writing-mode:lr-tb;baseline-shift:baseline;text-anchor:start;white-space:normal;clip-rule:nonzero;display:inline;overflow:visible;visibility:visible;opacity:0.16000001;isolation:auto;mix-blend-mode:normal;color-interpolation:sRGB;color-interpolation-filters:linearRGB;solid-color:#000000;solid-opacity:1;fill:#000000;fill-opacity:1;fill-rule:nonzero;stroke:none;stroke-width:0.97797471;stroke-linecap:butt;stroke-linejoin:miter;stroke-miterlimit:4;stroke-dasharray:none;stroke-dashoffset:0;stroke-opacity:1;color-rendering:auto;image-rendering:auto;shape-rendering:auto;text-rendering:auto;enable-background:accumulate;filter:url(#filter4240)" />
    <path
       sodipodi:nodetypes="ccccccccccccccccc"
       inkscape:connector-curvature="0"
       id="path4265"
       d="m 16,42 -8,4 0,10 3,1.5 3,-1.5 0,-3 -3,-1.5 0,-3.433334 5,-2.566666 5,2.5 0,3.5 -3,1.5 0,3 3,1.5 3,-1.5 0,-10 z"
       style="color:#000000;font-style:normal;font-variant:normal;font-weight:normal;font-stretch:normal;font-size:medium;line-height:normal;font-family:sans-serif;text-indent:0;text-align:start;text-decoration:none;text-decoration-line:none;text-decoration-style:solid;text-decoration-color:#000000;letter-spacing:normal;word-spacing:normal;text-transform:none;direction:ltr;block-progression:tb;writing-mode:lr-tb;baseline-shift:baseline;text-anchor:start;white-space:normal;clip-rule:nonzero;display:inline;overflow:visible;visibility:visible;opacity:1;isolation:auto;mix-blend-mode:normal;color-interpolation:sRGB;color-interpolation-filters:linearRGB;solid-color:#000000;solid-opacity:1;fill:#ffffff;fill-opacity:1;fill-rule:nonzero;stroke:none;stroke-width:0.97797471;stroke-linecap:butt;stroke-linejoin:miter;stroke-miterlimit:4;stroke-dasharray:none;stroke-dashoffset:0;stroke-opacity:1;filter:url(#filter5497);color-rendering:auto;image-rendering:auto;shape-rendering:auto;text-rendering:auto;enable-background:accumulate" />
  </g>
  <g
     style="display:none;filter:url(#filter4178)"
     inkscape:label="bg light"
     id="g5091"
     inkscape:groupmode="layer">
    <path
       style="opacity:0.98999999;fill:#6f6f6f;fill-opacity:0.70588235;stroke:none;stroke-opacity:1"
       d="M 10,0 C 8.892,0 8,0.892 8,2 l 0,56 c 0,1.108 0.892,2 2,2 l 44,0 c 1.108,0 2,-0.892 2,-2 l 0,-41 c 0,-1 -1,-2 -1,-2 L 41,1 C 41,1 40,0 39,0 Z"
       transform="translate(0,-32)"
       id="rect5093"
       inkscape:connector-curvature="0"
       sodipodi:nodetypes="ssssssccccs" />
    <path
       style="opacity:1;fill:#eeeeee;fill-opacity:1;fill-rule:evenodd;stroke:none;stroke-width:1;stroke-miterlimit:4;stroke-dasharray:none;stroke-opacity:1"
       d="M 10,1 C 9.446,1 9,1.446 9,2 l 0,56 c 0,0.554 0.446,1 1,1 l 44,0 c 0.554,0 1,-0.446 1,-1 L 55,17.998962 C 55,17 54.018801,16.018801 54.018801,16.018801 L 39.998047,1.9980468 C 39.998047,1.9980468 39,1 38,1 Z"
       transform="translate(0,-32)"
       id="rect5095"
       inkscape:connector-curvature="0"
       sodipodi:nodetypes="ssssssccccs" />
  </g>
  <g
     inkscape:groupmode="layer"
     id="layer1"
     inkscape:label="icon light 1"
     style="display:none"
     transform="translate(0,-32)">
    <path
       sodipodi:nodetypes="ccccccccccccccccc"
       inkscape:connector-curvature="0"
       id="path5085-3"
       d="m 32,12.666667 -13,7.428571 0,14.857143 4.333334,2.47619 4.333332,-2.47619 0,-4.952379 -4.333332,-2.476191 0,-4.952383 L 32,17.61905 l 8.666666,4.952379 0,4.952382 -4.333332,2.476191 0,4.952379 4.333332,2.47619 L 45,34.952381 45,20.095238 Z"
       style="color:#000000;font-style:normal;font-variant:normal;font-weight:normal;font-stretch:normal;font-size:medium;line-height:normal;font-family:sans-serif;text-indent:0;text-align:start;text-decoration:none;text-decoration-line:none;text-decoration-style:solid;text-decoration-color:#000000;letter-spacing:normal;word-spacing:normal;text-transform:none;direction:ltr;block-progression:tb;writing-mode:lr-tb;baseline-shift:baseline;text-anchor:start;white-space:normal;clip-rule:nonzero;display:inline;overflow:visible;visibility:visible;opacity:1;isolation:auto;mix-blend-mode:normal;color-interpolation:sRGB;color-interpolation-filters:linearRGB;solid-color:#000000;solid-opacity:1;fill:#2bbb68;fill-opacity:1;fill-rule:nonzero;stroke:none;stroke-width:0.97797471;stroke-linecap:butt;stroke-linejoin:miter;stroke-miterlimit:4;stroke-dasharray:none;stroke-dashoffset:0;stroke-opacity:1;filter:url(#filter5497);color-rendering:auto;image-rendering:auto;shape-rendering:auto;text-rendering:auto;enable-background:accumulate" />
    <text
       xml:space="preserve"
       style="font-style:normal;font-weight:normal;font-size:40px;line-height:125%;font-family:sans-serif;letter-spacing:0px;word-spacing:0px;writing-mode:tb-rl;fill:#2bbb68;fill-opacity:1;stroke:none;stroke-width:1px;stroke-linecap:butt;stroke-linejoin:miter;stroke-opacity:1"
       x="13.819121"
       y="49.512501"
       id="text4210"
       sodipodi:linespacing="125%"><tspan
         sodipodi:role="line"
         id="tspan4212"
         x="13.819121"
         y="49.512501"
         style="font-style:normal;font-variant:normal;font-weight:bold;font-stretch:normal;font-size:11.25px;font-family:Orbitron;-inkscape-font-specification:'Orbitron Bold';writing-mode:lr-tb;fill:#2bbb68;fill-opacity:1">mmpz</tspan></text>
  </g>
  <g
     style="display:none"
     id="g5022"
     inkscape:label="original shape"
     inkscape:groupmode="layer">
    <path
       style="color:#000000;font-style:normal;font-variant:normal;font-weight:normal;font-stretch:normal;font-size:medium;line-height:normal;font-family:sans-serif;text-indent:0;text-align:start;text-decoration:none;text-decoration-line:none;text-decoration-style:solid;text-decoration-color:#000000;letter-spacing:normal;word-spacing:normal;text-transform:none;direction:ltr;block-progression:tb;writing-mode:lr-tb;baseline-shift:baseline;text-anchor:start;white-space:normal;clip-rule:nonzero;display:inline;overflow:visible;visibility:visible;opacity:1;isolation:auto;mix-blend-mode:normal;color-interpolation:sRGB;color-interpolation-filters:linearRGB;solid-color:#000000;solid-opacity:1;fill:#000000;fill-opacity:0.20858896;fill-rule:nonzero;stroke:none;stroke-width:0.97797471;stroke-linecap:butt;stroke-linejoin:miter;stroke-miterlimit:4;stroke-dasharray:none;stroke-dashoffset:0;stroke-opacity:1;filter:url(#filter5497);color-rendering:auto;image-rendering:auto;shape-rendering:auto;text-rendering:auto;enable-background:accumulate"
       d="m 32,-21.383765 -21.02051,12.0796842 0.0028,24.2058498 7.456156,4.295424 7.456157,-4.295424 0,-8.5963165 -6.772608,-3.9016998 0,-7.0132165 L 32,-12 l 12.837057,7.3905362 0,7.0132165 -6.748,3.9208392 -0.02188,8.5744431 7.456156,4.298158 7.456157,-4.295424 0,-24.2058498 z"
       id="path5024"
       inkscape:connector-curvature="0"
       sodipodi:nodetypes="ccccccccccccccccc" />
  </g>
</svg>
