<?xml version="1.0" encoding="UTF-8" standalone="no"?>
<!-- Created with Inkscape (http://www.inkscape.org/) -->

<svg
   xmlns:dc="http://purl.org/dc/elements/1.1/"
   xmlns:cc="http://creativecommons.org/ns#"
   xmlns:rdf="http://www.w3.org/1999/02/22-rdf-syntax-ns#"
   xmlns:svg="http://www.w3.org/2000/svg"
   xmlns="http://www.w3.org/2000/svg"
   xmlns:xlink="http://www.w3.org/1999/xlink"
   xmlns:sodipodi="http://sodipodi.sourceforge.net/DTD/sodipodi-0.dtd"
   xmlns:inkscape="http://www.inkscape.org/namespaces/inkscape"
   width="1024"
   height="1024"
   viewBox="0 0 270.93333 270.93334"
   version="1.1"
   id="svg8"
   inkscape:version="0.92.4 (5da689c313, 2019-01-14)"
   sodipodi:docname="icon.svg">
  <defs
     id="defs2">
    <linearGradient
       id="BackgroundGradient">
      <stop
         id="stop4112"
         offset="0"
         style="stop-color:#780116;stop-opacity:1" />
      <stop
         id="stop4114"
         offset="1"
         style="stop-color:#c51306;stop-opacity:1" />
    </linearGradient>
    <linearGradient
       inkscape:collect="always"
       xlink:href="#BackgroundGradient"
       id="linearGradient842"
       x1="270.66901"
       y1="296.73569"
       x2="270.66901"
       y2="-244.60233"
       gradientUnits="userSpaceOnUse"
       gradientTransform="matrix(0.50048831,0,0,0.50048831,-2.0019532e-7,148.48726)" />
    <filter
       inkscape:collect="always"
       style="color-interpolation-filters:sRGB"
       id="filter826"
       x="-0.011759807"
       width="1.0235196"
       y="-0.012250209"
       height="1.0245004">
      <feGaussianBlur
         inkscape:collect="always"
         stdDeviation="1.7923042"
         id="feGaussianBlur828" />
    </filter>
  </defs>
  <sodipodi:namedview
     id="base"
     pagecolor="#ffffff"
     bordercolor="#666666"
     borderopacity="1.0"
     inkscape:pageopacity="0.0"
     inkscape:pageshadow="2"
     inkscape:zoom="0.67841916"
     inkscape:cx="570.80125"
     inkscape:cy="384.2864"
     inkscape:document-units="px"
     inkscape:current-layer="layer1"
     showgrid="false"
     units="px"
     inkscape:snap-object-midpoints="true"
     inkscape:snap-center="true"
     inkscape:snap-page="true"
     inkscape:snap-midpoints="true"
     inkscape:window-width="2560"
     inkscape:window-height="1377"
     inkscape:window-x="1912"
     inkscape:window-y="-8"
     inkscape:window-maximized="1" />
  <metadata
     id="metadata5">
    <rdf:RDF>
      <cc:Work
         rdf:about="">
        <dc:format>image/svg+xml</dc:format>
        <dc:type
           rdf:resource="http://purl.org/dc/dcmitype/StillImage" />
        <dc:title></dc:title>
      </cc:Work>
    </rdf:RDF>
  </metadata>
  <g
     inkscape:label="Layer"
     inkscape:groupmode="layer"
     id="layer1"
     transform="translate(0,-26.066665)"
     style="display:inline">
    <path
       inkscape:connector-curvature="0"
       d="M 93.187432,26.066655 H 177.7459 c 26.83289,0 40.24932,0 54.69161,4.5666 15.7685,5.739265 28.18999,18.16073 33.92925,33.929251 4.56657,14.44223 4.56657,27.858675 4.56657,54.691574 v 84.55849 c 0,26.8329 0,40.24935 -4.56657,54.69158 -5.73926,15.76851 -18.16075,28.18996 -33.92925,33.92924 -14.44229,4.5666 -27.85872,4.5666 -54.69161,4.5666 H 93.187432 c -26.832876,0 -40.249311,0 -54.691597,-4.5666 C 22.727334,286.69411 10.305853,274.27266 4.5665814,258.50415 0,244.06192 0,230.64547 0,203.81257 V 119.25408 C 0,92.421181 0,79.004736 4.5665814,64.562516 10.305853,48.793995 22.727334,36.37252 38.495835,30.633255 c 14.442286,-4.5666 27.858721,-4.5666 54.691597,-4.5666 v 0"
       id="path834"
       style="display:inline;fill:url(#linearGradient842);fill-opacity:1;stroke:none;stroke-width:0.26458335;stroke-opacity:1"
       inkscape:label="Container" />
    <path
       style="display:inline;opacity:0.1;fill:#000000;fill-opacity:1;stroke:none;stroke-width:3.99805307;stroke-linecap:butt;stroke-linejoin:miter;stroke-miterlimit:4;stroke-dasharray:none;stroke-opacity:1;filter:url(#filter826)"
       d="M 88.042142,166.50463 88.220731,26.155205 88.042142,-44.28521 149.18445,-79.239716 271.11191,-149.50301 393.03936,-79.239716 453.8245,-44.28521 v 210.78984 l -60.96373,35.13167 -60.96372,-35.13167 0.17876,-70.086148 60.78514,-35.30877 V -9.1535802 L 332.07559,-44.108085 271.11186,-79.239716 210.14814,-44.108085 149.00583,-9.1535802 V 61.109712 l 60.96372,35.131629 v 70.263289 l -60.96372,35.13167 z"
       id="path1531"
       inkscape:connector-curvature="0"
       sodipodi:nodetypes="cccccccccccccccccccccc"
       inkscape:label="Shadow"
       transform="matrix(0.50000001,0,0,0.50000001,0,148.49999)" />
    <path
       sodipodi:nodetypes="cccccccccccccccccccccc"
       inkscape:connector-curvature="0"
       id="path821"
       d="m 44.021072,222.98708 0.08929,-70.17471 -0.08929,-35.22021 30.571154,-17.47725 60.963734,-35.131649 60.96372,35.131649 30.39257,17.47725 v 105.39492 l -30.48186,17.56584 -30.48186,-17.56584 0.0894,-35.04307 30.39257,-17.65439 v -35.13164 l -30.3927,-17.47726 -30.48187,-17.56581 -30.48186,17.56581 -30.571154,17.47726 v 35.13164 l 30.481864,17.56582 v 35.13164 l -30.481864,17.56584 z"
       style="display:inline;opacity:1;fill:#ffffff;fill-opacity:1;stroke:none;stroke-width:1.99902654;stroke-linecap:butt;stroke-linejoin:miter;stroke-miterlimit:4;stroke-dasharray:none;stroke-opacity:1"
       inkscape:label="Headphones" />
  </g>
</svg>
