<?xml version="1.0" encoding="UTF-8" standalone="no"?>
<!-- Created with Inkscape (http://www.inkscape.org/) -->

<svg
   xmlns:dc="http://purl.org/dc/elements/1.1/"
   xmlns:cc="http://creativecommons.org/ns#"
   xmlns:rdf="http://www.w3.org/1999/02/22-rdf-syntax-ns#"
   xmlns:svg="http://www.w3.org/2000/svg"
   xmlns="http://www.w3.org/2000/svg"
   xmlns:xlink="http://www.w3.org/1999/xlink"
   xmlns:sodipodi="http://sodipodi.sourceforge.net/DTD/sodipodi-0.dtd"
   xmlns:inkscape="http://www.inkscape.org/namespaces/inkscape"
   width="48"
   height="48"
   viewBox="0 0 12.7 12.7"
   version="1.1"
   id="svg8"
   inkscape:version="0.92.4 (5da689c313, 2019-01-14)"
   sodipodi:docname="icon-branding.svg">
  <defs
     id="defs2">
    <linearGradient
       id="BackgroundGradient">
      <stop
         id="stop4112"
         offset="0"
         style="stop-color:#249a56;stop-opacity:1" />
      <stop
         id="stop4114"
         offset="1"
         style="stop-color:#50d99b;stop-opacity:1" />
    </linearGradient>
    <linearGradient
       inkscape:collect="always"
       xlink:href="#BackgroundGradient"
       id="linearGradient842"
       x1="270.66901"
       y1="296.73569"
       x2="270.66901"
       y2="-244.60233"
       gradientUnits="userSpaceOnUse"
       gradientTransform="matrix(0.02346039,0,0,0.02346039,0,290.03846)" />
    <filter
       inkscape:collect="always"
       style="color-interpolation-filters:sRGB"
       id="filter826"
       x="-0.011759807"
       width="1.0235196"
       y="-0.012250209"
       height="1.0245004">
      <feGaussianBlur
         inkscape:collect="always"
         stdDeviation="1.7923042"
         id="feGaussianBlur828" />
    </filter>
  </defs>
  <sodipodi:namedview
     id="base"
     pagecolor="#ffffff"
     bordercolor="#666666"
     borderopacity="1.0"
     inkscape:pageopacity="0.0"
     inkscape:pageshadow="2"
     inkscape:zoom="10.854707"
     inkscape:cx="10.495348"
     inkscape:cy="17.895833"
     inkscape:document-units="px"
     inkscape:current-layer="layer1"
     showgrid="false"
     units="px"
     inkscape:snap-object-midpoints="true"
     inkscape:snap-center="true"
     inkscape:snap-page="true"
     inkscape:snap-midpoints="true"
     inkscape:window-width="2560"
     inkscape:window-height="1377"
     inkscape:window-x="1912"
     inkscape:window-y="-8"
     inkscape:window-maximized="1" />
  <metadata
     id="metadata5">
    <rdf:RDF>
      <cc:Work
         rdf:about="">
        <dc:format>image/svg+xml</dc:format>
        <dc:type
           rdf:resource="http://purl.org/dc/dcmitype/StillImage" />
        <dc:title></dc:title>
      </cc:Work>
    </rdf:RDF>
  </metadata>
  <g
     inkscape:label="Layer"
     inkscape:groupmode="layer"
     id="layer1"
     transform="translate(0,-284.3)"
     style="display:inline">
    <path
       inkscape:connector-curvature="0"
       d="m 4.3681609,284.29999 h 3.9636783 c 1.2577917,0 1.8866868,0 2.5636688,0.21406 0.739149,0.26903 1.321406,0.85128 1.590434,1.59043 C 12.7,286.78146 12.7,287.41036 12.7,288.66815 v 3.96368 c 0,1.25779 0,1.88669 -0.214058,2.56367 -0.269028,0.73915 -0.851285,1.3214 -1.590434,1.59043 -0.676982,0.21406 -1.3058771,0.21406 -2.5636688,0.21406 H 4.3681609 c -1.257791,0 -1.8866864,0 -2.5636686,-0.21406 C 1.0653438,296.5169 0.48308687,295.93465 0.21405851,295.1955 0,294.51852 0,293.88962 0,292.63183 v -3.96368 c 0,-1.25779 0,-1.88669 0.21405851,-2.56367 0.26902836,-0.73915 0.85128529,-1.3214 1.59043379,-1.59043 0.6769822,-0.21406 1.3058776,-0.21406 2.5636686,-0.21406 v 0"
       id="path834"
       style="display:inline;fill:url(#linearGradient842);fill-opacity:1;stroke:none;stroke-width:0.01240235;stroke-opacity:1"
       inkscape:label="Container" />
    <path
       style="display:inline;opacity:0.1;fill:#000000;fill-opacity:1;stroke:none;stroke-width:3.99805307;stroke-linecap:butt;stroke-linejoin:miter;stroke-miterlimit:4;stroke-dasharray:none;stroke-opacity:1;filter:url(#filter826)"
       d="M 88.042142,166.50463 88.220731,26.155205 88.042142,-44.28521 149.18445,-79.239716 271.11191,-149.50301 393.03936,-79.239716 453.8245,-44.28521 v 210.78984 l -60.96373,35.13167 -60.96372,-35.13167 0.17876,-70.086148 60.78514,-35.30877 V -9.1535802 L 332.07559,-44.108085 271.11186,-79.239716 210.14814,-44.108085 149.00583,-9.1535802 V 61.109712 l 60.96372,35.131629 v 70.263289 l -60.96372,35.13167 z"
       id="path1531"
       inkscape:connector-curvature="0"
       sodipodi:nodetypes="cccccccccccccccccccccc"
       inkscape:label="Shadow"
       transform="matrix(0.0234375,0,0,0.0234375,0,290.03905)" />
    <path
       sodipodi:nodetypes="cccccccccccccccccccccc"
       inkscape:connector-curvature="0"
       id="path821"
       d="m 2.0634878,293.53063 0.00419,-3.28943 -0.00419,-1.65095 1.4330228,-0.81925 2.8576751,-1.64679 2.8576744,1.64679 1.4246519,0.81925 v 4.94038 l -1.4288374,0.8234 -1.4288372,-0.8234 0.00419,-1.64264 1.4246517,-0.82755 v -1.64679 L 7.783022,288.5944 6.3541843,287.771 l -1.4288372,0.8234 -1.4330229,0.81925 v 1.64679 l 1.4288374,0.8234 v 1.64679 l -1.4288374,0.8234 z"
       style="display:inline;opacity:1;fill:#ffffff;fill-opacity:1;stroke:none;stroke-width:0.09370437;stroke-linecap:butt;stroke-linejoin:miter;stroke-miterlimit:4;stroke-dasharray:none;stroke-opacity:1"
       inkscape:label="Headphones" />
  </g>
</svg>
